<svg id="Capa_1" enable-background="new 0 0 512 512" height="512" viewBox="0 0 512 512" width="512" xmlns="http://www.w3.org/2000/svg"><path d="m504.5 400.181c-4.142 0-7.5 3.357-7.5 7.5v9.319c0 14.612-11.888 26.5-26.5 26.5h-429c-14.612 0-26.5-11.888-26.5-26.5v-193.319c0-4.143-3.358-7.5-7.5-7.5s-7.5 3.357-7.5 7.5v193.319c0 22.883 18.617 41.5 41.5 41.5h429c22.883 0 41.5-18.617 41.5-41.5v-9.319c0-4.143-3.358-7.5-7.5-7.5z"/><path d="m470.5 53.5h-22.352c-4.142 0-7.5 3.357-7.5 7.5s3.358 7.5 7.5 7.5h22.352c14.612 0 26.5 11.888 26.5 26.5v38.5h-482v-38.5c0-14.612 11.888-26.5 26.5-26.5h374.276c4.142 0 7.5-3.357 7.5-7.5s-3.358-7.5-7.5-7.5h-374.276c-22.883 0-41.5 18.617-41.5 41.5v96.483c0 4.143 3.358 7.5 7.5 7.5s7.5-3.357 7.5-7.5v-42.983h482v226.994c0 4.143 3.358 7.5 7.5 7.5s7.5-3.357 7.5-7.5v-280.494c0-22.883-18.617-41.5-41.5-41.5z"/><path d="m40.5 100.672c0 12.958 10.542 23.5 23.5 23.5s23.5-10.542 23.5-23.5-10.542-23.5-23.5-23.5-23.5 10.542-23.5 23.5zm32 0c0 4.687-3.813 8.5-8.5 8.5s-8.5-3.813-8.5-8.5 3.813-8.5 8.5-8.5 8.5 3.813 8.5 8.5z"/><path d="m97.5 100.672c0 12.958 10.542 23.5 23.5 23.5s23.5-10.542 23.5-23.5-10.542-23.5-23.5-23.5-23.5 10.542-23.5 23.5zm32 0c0 4.687-3.813 8.5-8.5 8.5s-8.5-3.813-8.5-8.5 3.813-8.5 8.5-8.5 8.5 3.813 8.5 8.5z"/><path d="m154.5 100.672c0 12.958 10.542 23.5 23.5 23.5s23.5-10.542 23.5-23.5-10.542-23.5-23.5-23.5-23.5 10.542-23.5 23.5zm32 0c0 4.687-3.813 8.5-8.5 8.5s-8.5-3.813-8.5-8.5 3.813-8.5 8.5-8.5 8.5 3.813 8.5 8.5z"/><path d="m176 218.051h-40c-4.142 0-7.5 3.357-7.5 7.5v72.949h-22.5c-4.142 0-7.5 3.357-7.5 7.5s3.358 7.5 7.5 7.5h300c4.142 0 7.5-3.357 7.5-7.5s-3.358-7.5-7.5-7.5h-22.5v-67.149c0-4.143-3.358-7.5-7.5-7.5h-32.5v-57.851c0-4.143-3.358-7.5-7.5-7.5h-40c-4.142 0-7.5 3.357-7.5 7.5v41.021h-25v-15.538c0-4.143-3.358-7.5-7.5-7.5h-40c-4.142 0-7.5 3.357-7.5 7.5v49.758h-25v-15.69c0-4.143-3.358-7.5-7.5-7.5zm-32.5 15h25v65.449h-25zm225 5.8v59.649h-25v-59.649zm-65-65.351h25v125h-25zm-15 48.521v76.479h-25v-76.479zm-65-23.038h25v99.517h-25zm-15 57.258v42.259h-25v-42.259z"/><path d="m269.617 369.796c8.482 0 15.928-4.517 20.061-11.271l67.826 15.33c1.206 11.835 11.23 21.1 23.378 21.1 12.958 0 23.5-10.542 23.5-23.5s-10.542-23.5-23.5-23.5c-8.482 0-15.928 4.517-20.061 11.271l-67.826-15.33c-1.206-11.835-11.23-21.1-23.378-21.1-12.958 0-23.5 10.542-23.5 23.5v.026l-96.307 32.538c-4.297-5.632-11.078-9.273-18.693-9.273-12.958 0-23.5 10.542-23.5 23.5s10.542 23.5 23.5 23.5 23.5-10.542 23.5-23.5c0-.006 0-.012 0-.017l96.313-32.54c4.297 5.628 11.075 9.266 18.687 9.266zm-138.5 31.791c-4.687 0-8.5-3.813-8.5-8.5s3.813-8.5 8.5-8.5 8.5 3.813 8.5 8.5-3.813 8.5-8.5 8.5zm249.766-38.633c4.687 0 8.5 3.813 8.5 8.5s-3.813 8.5-8.5 8.5-8.5-3.813-8.5-8.5 3.813-8.5 8.5-8.5zm-111.266-25.158c4.687 0 8.5 3.813 8.5 8.5s-3.813 8.5-8.5 8.5c-3.725 0-6.898-2.409-8.043-5.751-.003-.009-.005-.017-.008-.026-.003-.01-.007-.019-.01-.029-.284-.847-.438-1.753-.438-2.695-.001-4.686 3.812-8.499 8.499-8.499z"/></svg>